<mxfile host="app.diagrams.net" modified="2023-06-17T14:57:35.998Z" agent="Mozilla/5.0 (Windows NT 10.0; Win64; x64) AppleWebKit/537.36 (KHTML, like Gecko) Chrome/114.0.0.0 Safari/537.36 Edg/114.0.1823.51" etag="wccjYVYa64rTkNQjs0_c" version="21.3.7" type="device">
  <diagram name="Page-1" id="9361dd3d-8414-5efd-6122-117bd74ce7a7">
    <mxGraphModel dx="2775" dy="1360" grid="1" gridSize="10" guides="1" tooltips="1" connect="1" arrows="1" fold="1" page="0" pageScale="1.5" pageWidth="826" pageHeight="1169" background="none" math="0" shadow="0">
      <root>
        <mxCell id="0" />
        <mxCell id="1" parent="0" />
        <mxCell id="vo8SwbYzCQMfL-nATyuu-108" value="" style="rounded=0;whiteSpace=wrap;html=1;fillColor=#dae8fc;strokeColor=#6c8ebf;" vertex="1" parent="1">
          <mxGeometry x="-130" width="980" height="540" as="geometry" />
        </mxCell>
        <mxCell id="vo8SwbYzCQMfL-nATyuu-109" value="" style="fillColor=#CC4125;strokeColor=#660000" vertex="1" parent="1">
          <mxGeometry x="210" y="390" width="10" height="70" as="geometry" />
        </mxCell>
        <mxCell id="vo8SwbYzCQMfL-nATyuu-110" value="Copy and Move&#xa;der verfÃ¼gbaren&#xa;Steps von &quot;AvailableSteps&quot;&#xa;zu &quot;Pipeline&quot;" style="edgeStyle=none;verticalLabelPosition=top;verticalAlign=bottom;labelPosition=left;align=center;exitX=1;exitY=0.45;exitDx=0;exitDy=0;exitPerimeter=0;fontSize=14;" edge="1" parent="1" source="vo8SwbYzCQMfL-nATyuu-134">
          <mxGeometry x="10" y="10" width="100" height="100" as="geometry">
            <mxPoint x="29.710000000000036" y="260.39999999999986" as="sourcePoint" />
            <mxPoint x="210" y="260" as="targetPoint" />
            <Array as="points">
              <mxPoint x="80" y="260" />
            </Array>
            <mxPoint as="offset" />
          </mxGeometry>
        </mxCell>
        <mxCell id="vo8SwbYzCQMfL-nATyuu-111" value="Frontend" style="shadow=1;fillColor=#A2C4C9;strokeColor=none;fontSize=18;" vertex="1" parent="1">
          <mxGeometry x="162.5" y="70" width="105" height="50" as="geometry" />
        </mxCell>
        <mxCell id="vo8SwbYzCQMfL-nATyuu-112" value="AWS" style="shadow=1;fillColor=#A2C4C9;strokeColor=none;fontSize=18;" vertex="1" parent="1">
          <mxGeometry x="390" y="70" width="105" height="50" as="geometry" />
        </mxCell>
        <mxCell id="vo8SwbYzCQMfL-nATyuu-113" value="" style="edgeStyle=none;endArrow=none;dashed=1;" edge="1" parent="1" source="vo8SwbYzCQMfL-nATyuu-112">
          <mxGeometry x="282.3350694444445" y="175" width="100" height="100" as="geometry">
            <mxPoint x="357.2588734567901" y="120" as="sourcePoint" />
            <mxPoint x="440" y="540" as="targetPoint" />
            <Array as="points">
              <mxPoint x="443" y="270" />
              <mxPoint x="443" y="360" />
            </Array>
          </mxGeometry>
        </mxCell>
        <mxCell id="vo8SwbYzCQMfL-nATyuu-114" value="&lt;&lt;pushImageToS3()&gt;&gt;" style="edgeStyle=none;verticalLabelPosition=top;verticalAlign=bottom;fontSize=14;" edge="1" parent="1">
          <mxGeometry x="7.5" y="-20.5" width="100" height="100" as="geometry">
            <mxPoint x="220" y="160" as="sourcePoint" />
            <mxPoint x="440" y="160" as="targetPoint" />
            <mxPoint as="offset" />
          </mxGeometry>
        </mxCell>
        <mxCell id="vo8SwbYzCQMfL-nATyuu-115" value="" style="edgeStyle=orthogonalEdgeStyle;rounded=0;orthogonalLoop=1;jettySize=auto;html=1;" edge="1" parent="1" source="vo8SwbYzCQMfL-nATyuu-116" target="vo8SwbYzCQMfL-nATyuu-127">
          <mxGeometry relative="1" as="geometry" />
        </mxCell>
        <mxCell id="vo8SwbYzCQMfL-nATyuu-116" value="" style="fillColor=#d5e8d4;strokeColor=#82b366;" vertex="1" parent="1">
          <mxGeometry x="667.5" y="390" width="10" height="100" as="geometry" />
        </mxCell>
        <mxCell id="vo8SwbYzCQMfL-nATyuu-117" value="Backend" style="shadow=1;fillColor=#A2C4C9;strokeColor=none;fontSize=18;" vertex="1" parent="1">
          <mxGeometry x="620" y="70" width="105" height="50" as="geometry" />
        </mxCell>
        <mxCell id="vo8SwbYzCQMfL-nATyuu-118" value="" style="edgeStyle=none;endArrow=none;dashed=1;entryX=0.818;entryY=1.002;entryDx=0;entryDy=0;entryPerimeter=0;" edge="1" parent="1" source="vo8SwbYzCQMfL-nATyuu-117" target="vo8SwbYzCQMfL-nATyuu-108">
          <mxGeometry x="624.4878472222224" y="184.99999999999997" width="100" height="100" as="geometry">
            <mxPoint x="684.6527777777778" y="120" as="sourcePoint" />
            <mxPoint x="671.9100000000003" y="580.3999999999999" as="targetPoint" />
          </mxGeometry>
        </mxCell>
        <mxCell id="vo8SwbYzCQMfL-nATyuu-119" value="" style="edgeStyle=elbowEdgeStyle;elbow=horizontal;endArrow=none;dashed=1;entryX=0.352;entryY=0.997;entryDx=0;entryDy=0;entryPerimeter=0;" edge="1" parent="1" source="vo8SwbYzCQMfL-nATyuu-111" target="vo8SwbYzCQMfL-nATyuu-108">
          <mxGeometry x="240.00000000000003" y="320" width="100" height="100" as="geometry">
            <mxPoint x="240.00000000000003" y="420" as="sourcePoint" />
            <mxPoint x="216" y="540" as="targetPoint" />
          </mxGeometry>
        </mxCell>
        <mxCell id="vo8SwbYzCQMfL-nATyuu-120" value="Ablauf der Bildverarbeitung" style="rounded=1;fontStyle=1;fillColor=#FFD966;strokeColor=none;fontSize=18;" vertex="1" parent="1">
          <mxGeometry x="-130" width="980" height="30" as="geometry" />
        </mxCell>
        <mxCell id="vo8SwbYzCQMfL-nATyuu-121" value="Bildupload" style="edgeStyle=none;verticalLabelPosition=top;verticalAlign=bottom;labelPosition=left;align=center;exitX=0.999;exitY=0.254;exitDx=0;exitDy=0;fontSize=14;exitPerimeter=0;" edge="1" parent="1" source="vo8SwbYzCQMfL-nATyuu-134">
          <mxGeometry x="10" y="10" width="100" height="100" as="geometry">
            <mxPoint x="29.710000000000036" y="160.39999999999986" as="sourcePoint" />
            <mxPoint x="210" y="160" as="targetPoint" />
            <Array as="points">
              <mxPoint x="170" y="160.5" />
            </Array>
            <mxPoint as="offset" />
          </mxGeometry>
        </mxCell>
        <mxCell id="vo8SwbYzCQMfL-nATyuu-123" value="&lt;&lt;imageId &amp; histId&gt;&gt;" style="edgeStyle=none;verticalLabelPosition=top;verticalAlign=bottom;entryX=0.172;entryY=0.238;entryDx=0;entryDy=0;entryPerimeter=0;fontSize=14;" edge="1" parent="1">
          <mxGeometry x="225" y="19.5" width="100" height="100" as="geometry">
            <mxPoint x="437.5" y="200" as="sourcePoint" />
            <mxPoint x="220.67999999999984" y="200.39999999999986" as="targetPoint" />
            <mxPoint as="offset" />
            <Array as="points">
              <mxPoint x="400" y="200" />
            </Array>
          </mxGeometry>
        </mxCell>
        <mxCell id="vo8SwbYzCQMfL-nATyuu-124" value="Parameter festlegen &#xa;und Steps bei &#xa;Bedarf neu anordnen" style="edgeStyle=none;verticalLabelPosition=top;verticalAlign=bottom;labelPosition=left;align=center;exitX=1.002;exitY=0.589;exitDx=0;exitDy=0;exitPerimeter=0;fontSize=14;" edge="1" parent="1" source="vo8SwbYzCQMfL-nATyuu-134">
          <mxGeometry x="10" y="80" width="100" height="100" as="geometry">
            <mxPoint x="30" y="330" as="sourcePoint" />
            <mxPoint x="210" y="330" as="targetPoint" />
            <Array as="points">
              <mxPoint x="80" y="330" />
            </Array>
            <mxPoint as="offset" />
          </mxGeometry>
        </mxCell>
        <mxCell id="vo8SwbYzCQMfL-nATyuu-125" value="Start Pipeline" style="edgeStyle=none;verticalLabelPosition=top;verticalAlign=bottom;labelPosition=left;align=center;exitX=1.002;exitY=0.687;exitDx=0;exitDy=0;exitPerimeter=0;fontColor=#119c07;fontSize=14;fontStyle=1" edge="1" parent="1" source="vo8SwbYzCQMfL-nATyuu-134">
          <mxGeometry x="10" y="130" width="100" height="100" as="geometry">
            <mxPoint x="30" y="380" as="sourcePoint" />
            <mxPoint x="210" y="380" as="targetPoint" />
            <Array as="points">
              <mxPoint x="80" y="380" />
            </Array>
            <mxPoint as="offset" />
          </mxGeometry>
        </mxCell>
        <mxCell id="vo8SwbYzCQMfL-nATyuu-126" value="&lt;&lt;startPipeline()&gt;&gt;&#xa;&lt;&lt;imageId&gt;&gt;&#xa;&lt;&lt;steps &amp; params&gt;&gt;" style="edgeStyle=none;verticalLabelPosition=top;verticalAlign=bottom;fontSize=14;" edge="1" parent="1">
          <mxGeometry x="10" y="10" width="100" height="100" as="geometry">
            <mxPoint x="220" y="380" as="sourcePoint" />
            <mxPoint x="670" y="380" as="targetPoint" />
            <mxPoint x="135" as="offset" />
          </mxGeometry>
        </mxCell>
        <mxCell id="vo8SwbYzCQMfL-nATyuu-127" value="&lt;font style=&quot;font-size: 14px;&quot;&gt;Verarbeitung&lt;/font&gt;" style="ellipse;shape=cloud;whiteSpace=wrap;html=1;" vertex="1" parent="1">
          <mxGeometry x="715" y="400" width="120" height="80" as="geometry" />
        </mxCell>
        <mxCell id="vo8SwbYzCQMfL-nATyuu-128" value="&lt;&lt;pushResultsToS3()&gt;&gt;" style="edgeStyle=none;verticalLabelPosition=top;verticalAlign=bottom;entryX=0.172;entryY=0.238;entryDx=0;entryDy=0;entryPerimeter=0;fontSize=14;" edge="1" parent="1">
          <mxGeometry x="455" y="249.27" width="100" height="100" as="geometry">
            <mxPoint x="667.5" y="429.77" as="sourcePoint" />
            <mxPoint x="451" y="429.77" as="targetPoint" />
            <mxPoint as="offset" />
            <Array as="points">
              <mxPoint x="630" y="429.77" />
            </Array>
          </mxGeometry>
        </mxCell>
        <mxCell id="vo8SwbYzCQMfL-nATyuu-129" value="&lt;&lt;imageIds &amp; histIds&gt;&gt;" style="edgeStyle=none;verticalLabelPosition=top;verticalAlign=bottom;fontSize=14;" edge="1" parent="1">
          <mxGeometry width="100" height="100" as="geometry">
            <mxPoint x="447.5" y="460" as="sourcePoint" />
            <mxPoint x="667.5" y="460" as="targetPoint" />
            <mxPoint as="offset" />
          </mxGeometry>
        </mxCell>
        <mxCell id="vo8SwbYzCQMfL-nATyuu-130" value="&lt;&lt;results&gt;&gt;" style="edgeStyle=none;verticalLabelPosition=top;verticalAlign=bottom;fontSize=14;" edge="1" parent="1">
          <mxGeometry x="10" y="10" width="100" height="100" as="geometry">
            <mxPoint x="667.5" y="500" as="sourcePoint" />
            <mxPoint x="220" y="500" as="targetPoint" />
            <mxPoint x="-114" as="offset" />
            <Array as="points">
              <mxPoint x="630" y="500" />
            </Array>
          </mxGeometry>
        </mxCell>
        <mxCell id="vo8SwbYzCQMfL-nATyuu-131" value="" style="fillColor=#CC4125;strokeColor=#660000" vertex="1" parent="1">
          <mxGeometry x="210" y="390" width="10" height="100" as="geometry" />
        </mxCell>
        <mxCell id="vo8SwbYzCQMfL-nATyuu-132" value="" style="fillColor=#d5e8d4;strokeColor=#82b366;" vertex="1" parent="1">
          <mxGeometry x="667.5" y="390" width="10" height="100" as="geometry" />
        </mxCell>
        <mxCell id="vo8SwbYzCQMfL-nATyuu-133" value="Ergebnisse werden angezeigt" style="edgeStyle=none;verticalLabelPosition=top;verticalAlign=bottom;entryX=1;entryY=0.921;entryDx=0;entryDy=0;entryPerimeter=0;fontSize=14;" edge="1" parent="1" target="vo8SwbYzCQMfL-nATyuu-134">
          <mxGeometry x="-2.5" y="319.5" width="100" height="100" as="geometry">
            <mxPoint x="210" y="500" as="sourcePoint" />
            <mxPoint x="30" y="500" as="targetPoint" />
            <mxPoint as="offset" />
            <Array as="points">
              <mxPoint x="172.5" y="500" />
            </Array>
          </mxGeometry>
        </mxCell>
        <mxCell id="vo8SwbYzCQMfL-nATyuu-134" value="" style="rounded=0;whiteSpace=wrap;html=1;fillColor=#fff2cc;strokeColor=#d6b656;" vertex="1" parent="1">
          <mxGeometry x="-130" y="30" width="120" height="510" as="geometry" />
        </mxCell>
        <mxCell id="vo8SwbYzCQMfL-nATyuu-135" value="&lt;font style=&quot;font-size: 18px;&quot;&gt;Anwender&lt;/font&gt;" style="shape=umlActor;verticalLabelPosition=bottom;verticalAlign=top;html=1;outlineConnect=0;fillColor=#f5f5f5;fontColor=#333333;strokeColor=#666666;" vertex="1" parent="1">
          <mxGeometry x="-110" y="230" width="80" height="160" as="geometry" />
        </mxCell>
      </root>
    </mxGraphModel>
  </diagram>
</mxfile>
